<?xml version="1.0" standalone="no"?>
<!DOCTYPE svg PUBLIC "-//W3C//DTD SVG 20010904//EN"
 "http://www.w3.org/TR/2001/REC-SVG-20010904/DTD/svg10.dtd">
<svg version="1.0" xmlns="http://www.w3.org/2000/svg"
 width="512.000000pt" height="512.000000pt" viewBox="0 0 512.000000 512.000000"
 preserveAspectRatio="xMidYMid meet">

<g transform="translate(0.000000,512.000000) scale(0.100000,-0.100000)"
fill="#000000" stroke="none">
<path d="M960 4457 c-25 -13 -51 -37 -62 -57 -18 -34 -18 -96 -16 -1853 l3
-1818 41 -39 c51 -47 101 -59 159 -39 69 25 3078 1768 3114 1804 29 28 35 42
39 88 7 82 -15 117 -102 171 -71 44 -2674 1547 -2926 1690 -150 85 -178 91
-250 53z"/>
</g>
</svg>
